<svg version="1.1" xmlns="http://www.w3.org/2000/svg" xmlns:xlink="http://www.w3.org/1999/xlink" width="1171.720703125" height="817"><defs/><g><g transform="translate(-78,-86) scale(1,1)"><rect fill="#C0C0C0" stroke="none" x="255" y="103" width="167" height="147" opacity="0.2"/></g><g transform="translate(-78,-86) scale(1,1)"><rect fill="#ffffff" stroke="none" x="248" y="96" width="167" height="147"/></g><g transform="translate(-78,-86) scale(1,1)"><path fill="none" stroke="#000000" d="M 248 96 L 415 96 L 415 243 L 248 243 L 248 96 Z Z" stroke-miterlimit="10"/></g><g transform="translate(-78,-86) scale(1,1)"><path fill="none" stroke="#000000" d="M 248 121 L 415 121" stroke-miterlimit="10"/></g><g transform="translate(-78,-86) scale(1,1)"><path fill="none" stroke="#000000" d="M 248 234 L 415 234" stroke-miterlimit="10"/></g><g transform="translate(-78,-86) scale(1,1)"><g><path fill="none" stroke="none"/><text fill="#000000" stroke="none" font-family="Arial" font-size="13px" font-style="normal" font-weight="bold" text-decoration="none" x="317.04638671875" y="114">User</text></g></g><g transform="translate(-78,-86) scale(1,1)"><g><path fill="none" stroke="none"/><text fill="#000000" stroke="none" font-family="Arial" font-size="13px" font-style="normal" font-weight="normal" text-decoration="none" x="253" y="137">+id: string</text></g></g><g transform="translate(-78,-86) scale(1,1)"><g><path fill="none" stroke="none"/><text fill="#000000" stroke="none" font-family="Arial" font-size="13px" font-style="normal" font-weight="normal" text-decoration="none" x="253" y="152">+firstName: string</text></g></g><g transform="translate(-78,-86) scale(1,1)"><g><path fill="none" stroke="none"/><text fill="#000000" stroke="none" font-family="Arial" font-size="13px" font-style="normal" font-weight="normal" text-decoration="none" x="253" y="167">+lastName: string</text></g></g><g transform="translate(-78,-86) scale(1,1)"><g><path fill="none" stroke="none"/><text fill="#000000" stroke="none" font-family="Arial" font-size="13px" font-style="normal" font-weight="normal" text-decoration="none" x="253" y="182">+email: string</text></g></g><g transform="translate(-78,-86) scale(1,1)"><g><path fill="none" stroke="none"/><text fill="#000000" stroke="none" font-family="Arial" font-size="13px" font-style="normal" font-weight="normal" text-decoration="none" x="253" y="197">+password: string</text></g></g><g transform="translate(-78,-86) scale(1,1)"><g><path fill="none" stroke="none"/><text fill="#000000" stroke="none" font-family="Arial" font-size="13px" font-style="normal" font-weight="normal" text-decoration="none" x="253" y="212">+roleId: Role</text></g></g><g transform="translate(-78,-86) scale(1,1)"><g><path fill="none" stroke="none"/><text fill="#000000" stroke="none" font-family="Arial" font-size="13px" font-style="normal" font-weight="normal" text-decoration="none" x="253" y="227">+phone: string</text></g></g><g transform="translate(-78,-86) scale(1,1)"><rect fill="#C0C0C0" stroke="none" x="95" y="463" width="168" height="87" opacity="0.2"/></g><g transform="translate(-78,-86) scale(1,1)"><rect fill="#ffffff" stroke="none" x="88" y="456" width="168" height="87"/></g><g transform="translate(-78,-86) scale(1,1)"><path fill="none" stroke="#000000" d="M 88 456 L 256 456 L 256 543 L 88 543 L 88 456 Z Z" stroke-miterlimit="10"/></g><g transform="translate(-78,-86) scale(1,1)"><path fill="none" stroke="#000000" d="M 88 481 L 256 481" stroke-miterlimit="10"/></g><g transform="translate(-78,-86) scale(1,1)"><path fill="none" stroke="#000000" d="M 88 534 L 256 534" stroke-miterlimit="10"/></g><g transform="translate(-78,-86) scale(1,1)"><g><path fill="none" stroke="none"/><text fill="#000000" stroke="none" font-family="Arial" font-size="13px" font-style="normal" font-weight="bold" text-decoration="none" x="157.91455078125" y="474">Role</text></g></g><g transform="translate(-78,-86) scale(1,1)"><g><path fill="none" stroke="none"/><text fill="#000000" stroke="none" font-family="Arial" font-size="13px" font-style="normal" font-weight="normal" text-decoration="none" x="93" y="497">+id: string</text></g></g><g transform="translate(-78,-86) scale(1,1)"><g><path fill="none" stroke="none"/><text fill="#000000" stroke="none" font-family="Arial" font-size="13px" font-style="normal" font-weight="normal" text-decoration="none" x="93" y="512">+name: string</text></g></g><g transform="translate(-78,-86) scale(1,1)"><g><path fill="none" stroke="none"/><text fill="#000000" stroke="none" font-family="Arial" font-size="13px" font-style="normal" font-weight="normal" text-decoration="none" x="93" y="527">+description</text></g></g><g transform="translate(-78,-86) scale(1,1)"><path fill="none" stroke="#000000" d="M 193 455 L 295 244" stroke-miterlimit="10"/></g><g transform="translate(-78,-86) scale(1,1)"><g><path fill="none" stroke="none"/><text fill="#000000" stroke="none" font-family="Arial" font-size="13px" font-style="normal" font-weight="normal" text-decoration="none" x="210.5" y="446">1</text></g></g><g transform="translate(-78,-86) scale(1,1)"><g><path fill="none" stroke="none"/><text fill="#000000" stroke="none" font-family="Arial" font-size="13px" font-style="normal" font-weight="normal" text-decoration="none" x="297.5" y="265">1..*</text></g></g><g transform="translate(-78,-86) scale(1,1)"><rect fill="#C0C0C0" stroke="none" x="783" y="103" width="168" height="147" opacity="0.2"/></g><g transform="translate(-78,-86) scale(1,1)"><rect fill="#ffffff" stroke="none" x="776" y="96" width="168" height="147"/></g><g transform="translate(-78,-86) scale(1,1)"><path fill="none" stroke="#000000" d="M 776 96 L 944 96 L 944 243 L 776 243 L 776 96 Z Z" stroke-miterlimit="10"/></g><g transform="translate(-78,-86) scale(1,1)"><path fill="none" stroke="#000000" d="M 776 121 L 944 121" stroke-miterlimit="10"/></g><g transform="translate(-78,-86) scale(1,1)"><path fill="none" stroke="#000000" d="M 776 234 L 944 234" stroke-miterlimit="10"/></g><g transform="translate(-78,-86) scale(1,1)"><g><path fill="none" stroke="none"/><text fill="#000000" stroke="none" font-family="Arial" font-size="13px" font-style="normal" font-weight="bold" text-decoration="none" x="835.444091796875" y="114">Product</text></g></g><g transform="translate(-78,-86) scale(1,1)"><g><path fill="none" stroke="none"/><text fill="#000000" stroke="none" font-family="Arial" font-size="13px" font-style="normal" font-weight="normal" text-decoration="none" x="781" y="137">+id: string</text></g></g><g transform="translate(-78,-86) scale(1,1)"><g><path fill="none" stroke="none"/><text fill="#000000" stroke="none" font-family="Arial" font-size="13px" font-style="normal" font-weight="normal" text-decoration="none" x="781" y="152">+name: string</text></g></g><g transform="translate(-78,-86) scale(1,1)"><g><path fill="none" stroke="none"/><text fill="#000000" stroke="none" font-family="Arial" font-size="13px" font-style="normal" font-weight="normal" text-decoration="none" x="781" y="167">+description: string</text></g></g><g transform="translate(-78,-86) scale(1,1)"><g><path fill="none" stroke="none"/><text fill="#000000" stroke="none" font-family="Arial" font-size="13px" font-style="normal" font-weight="normal" text-decoration="none" x="781" y="182">+price: number</text></g></g><g transform="translate(-78,-86) scale(1,1)"><g><path fill="none" stroke="none"/><text fill="#000000" stroke="none" font-family="Arial" font-size="13px" font-style="normal" font-weight="normal" text-decoration="none" x="781" y="197">+isActive: boolean</text></g></g><g transform="translate(-78,-86) scale(1,1)"><g><path fill="none" stroke="none"/><text fill="#000000" stroke="none" font-family="Arial" font-size="13px" font-style="normal" font-weight="normal" text-decoration="none" x="781" y="212">+adminId: User</text></g></g><g transform="translate(-78,-86) scale(1,1)"><g><path fill="none" stroke="none"/><text fill="#000000" stroke="none" font-family="Arial" font-size="13px" font-style="normal" font-weight="normal" text-decoration="none" x="781" y="227">+categoryId: Category</text></g></g><g transform="translate(-78,-86) scale(1,1)"><rect fill="#C0C0C0" stroke="none" x="791" y="487" width="159" height="87" opacity="0.2"/></g><g transform="translate(-78,-86) scale(1,1)"><rect fill="#ffffff" stroke="none" x="784" y="480" width="159" height="87"/></g><g transform="translate(-78,-86) scale(1,1)"><path fill="none" stroke="#000000" d="M 784 480 L 943 480 L 943 567 L 784 567 L 784 480 Z Z" stroke-miterlimit="10"/></g><g transform="translate(-78,-86) scale(1,1)"><path fill="none" stroke="#000000" d="M 784 505 L 943 505" stroke-miterlimit="10"/></g><g transform="translate(-78,-86) scale(1,1)"><path fill="none" stroke="#000000" d="M 784 558 L 943 558" stroke-miterlimit="10"/></g><g transform="translate(-78,-86) scale(1,1)"><g><path fill="none" stroke="none"/><text fill="#000000" stroke="none" font-family="Arial" font-size="13px" font-style="normal" font-weight="bold" text-decoration="none" x="836.405029296875" y="497.5">category</text></g></g><g transform="translate(-78,-86) scale(1,1)"><g><path fill="none" stroke="none"/><text fill="#000000" stroke="none" font-family="Arial" font-size="13px" font-style="normal" font-weight="normal" text-decoration="none" x="789" y="521">+id: string</text></g></g><g transform="translate(-78,-86) scale(1,1)"><g><path fill="none" stroke="none"/><text fill="#000000" stroke="none" font-family="Arial" font-size="13px" font-style="normal" font-weight="normal" text-decoration="none" x="789" y="536">+name: string</text></g></g><g transform="translate(-78,-86) scale(1,1)"><g><path fill="none" stroke="none"/><text fill="#000000" stroke="none" font-family="Arial" font-size="13px" font-style="normal" font-weight="normal" text-decoration="none" x="789" y="551">+description: string</text></g></g><g transform="translate(-78,-86) scale(1,1)"><path fill="none" stroke="#000000" d="M 863 479 L 861 244" stroke-miterlimit="10"/></g><g transform="translate(-78,-86) scale(1,1)"><g><path fill="none" stroke="none"/><text fill="#000000" stroke="none" font-family="Arial" font-size="13px" font-style="normal" font-weight="normal" text-decoration="none" x="871.5" y="467">1</text></g></g><g transform="translate(-78,-86) scale(1,1)"><g><path fill="none" stroke="none"/><text fill="#000000" stroke="none" font-family="Arial" font-size="13px" font-style="normal" font-weight="normal" text-decoration="none" x="863.5" y="265">1..*</text></g></g><g transform="translate(-78,-86) scale(1,1)"><path fill="none" stroke="#000000" d="M 416 169 L 775 169" stroke-miterlimit="10"/></g><g transform="translate(-78,-86) scale(1,1)"><g><path fill="none" stroke="none"/><text fill="#000000" stroke="none" font-family="Arial" font-size="13px" font-style="normal" font-weight="normal" text-decoration="none" x="421.641357421875" y="194">1</text></g></g><g transform="translate(-78,-86) scale(1,1)"><g><path fill="none" stroke="none"/><text fill="#000000" stroke="none" font-family="Arial" font-size="13px" font-style="normal" font-weight="normal" text-decoration="none" x="743.5" y="194">0..*</text></g></g><g transform="translate(-78,-86) scale(1,1)"><rect fill="#C0C0C0" stroke="none" x="351" y="559" width="152" height="102" opacity="0.2"/></g><g transform="translate(-78,-86) scale(1,1)"><rect fill="#ffffff" stroke="none" x="344" y="552" width="152" height="102"/></g><g transform="translate(-78,-86) scale(1,1)"><path fill="none" stroke="#000000" d="M 344 552 L 496 552 L 496 654 L 344 654 L 344 552 Z Z" stroke-miterlimit="10"/></g><g transform="translate(-78,-86) scale(1,1)"><path fill="none" stroke="#000000" d="M 344 577 L 496 577" stroke-miterlimit="10"/></g><g transform="translate(-78,-86) scale(1,1)"><path fill="none" stroke="#000000" d="M 344 645 L 496 645" stroke-miterlimit="10"/></g><g transform="translate(-78,-86) scale(1,1)"><g><path fill="none" stroke="none"/><text fill="#000000" stroke="none" font-family="Arial" font-size="13px" font-style="normal" font-weight="bold" text-decoration="none" x="402.299560546875" y="570">Order</text></g></g><g transform="translate(-78,-86) scale(1,1)"><g><path fill="none" stroke="none"/><text fill="#000000" stroke="none" font-family="Arial" font-size="13px" font-style="normal" font-weight="normal" text-decoration="none" x="349" y="593">+id: string</text></g></g><g transform="translate(-78,-86) scale(1,1)"><g><path fill="none" stroke="none"/><text fill="#000000" stroke="none" font-family="Arial" font-size="13px" font-style="normal" font-weight="normal" text-decoration="none" x="349" y="607.5">+status: enum</text></g></g><g transform="translate(-78,-86) scale(1,1)"><g><path fill="none" stroke="none"/><text fill="#000000" stroke="none" font-family="Arial" font-size="13px" font-style="normal" font-weight="normal" text-decoration="none" x="349" y="623">+totalPrice: number</text></g></g><g transform="translate(-78,-86) scale(1,1)"><g><path fill="none" stroke="none"/><text fill="#000000" stroke="none" font-family="Arial" font-size="13px" font-style="normal" font-weight="normal" text-decoration="none" x="349" y="638">+userId: User</text></g></g><g transform="translate(-78,-86) scale(1,1)"><path fill="none" stroke="#000000" d="M 346 244 L 409 551" stroke-miterlimit="10"/></g><g transform="translate(-78,-86) scale(1,1)"><g><path fill="none" stroke="none"/><text fill="#000000" stroke="none" font-family="Arial" font-size="13px" font-style="normal" font-weight="normal" text-decoration="none" x="359.5" y="266">1</text></g></g><g transform="translate(-78,-86) scale(1,1)"><g><path fill="none" stroke="none"/><text fill="#000000" stroke="none" font-family="Arial" font-size="13px" font-style="normal" font-weight="normal" text-decoration="none" x="419.5" y="541">0..*</text></g></g><g transform="translate(-78,-86) scale(1,1)"><rect fill="#C0C0C0" stroke="none" x="359" y="783" width="143" height="117" opacity="0.2"/></g><g transform="translate(-78,-86) scale(1,1)"><rect fill="#ffffff" stroke="none" x="352" y="776" width="143" height="117"/></g><g transform="translate(-78,-86) scale(1,1)"><path fill="none" stroke="#000000" d="M 352 776 L 495 776 L 495 893 L 352 893 L 352 776 Z Z" stroke-miterlimit="10"/></g><g transform="translate(-78,-86) scale(1,1)"><path fill="none" stroke="#000000" d="M 352 801 L 495 801" stroke-miterlimit="10"/></g><g transform="translate(-78,-86) scale(1,1)"><path fill="none" stroke="#000000" d="M 352 884 L 495 884" stroke-miterlimit="10"/></g><g transform="translate(-78,-86) scale(1,1)"><g><path fill="none" stroke="none"/><text fill="#000000" stroke="none" font-family="Arial" font-size="13px" font-style="normal" font-weight="bold" text-decoration="none" x="396.405029296875" y="794">Payment</text></g></g><g transform="translate(-78,-86) scale(1,1)"><g><path fill="none" stroke="none"/><text fill="#000000" stroke="none" font-family="Arial" font-size="13px" font-style="normal" font-weight="normal" text-decoration="none" x="357" y="817">+id: string</text></g></g><g transform="translate(-78,-86) scale(1,1)"><g><path fill="none" stroke="none"/><text fill="#000000" stroke="none" font-family="Arial" font-size="13px" font-style="normal" font-weight="normal" text-decoration="none" x="357" y="832">+orderId: Order</text></g></g><g transform="translate(-78,-86) scale(1,1)"><g><path fill="none" stroke="none"/><text fill="#000000" stroke="none" font-family="Arial" font-size="13px" font-style="normal" font-weight="normal" text-decoration="none" x="357" y="847">+amount: number</text></g></g><g transform="translate(-78,-86) scale(1,1)"><g><path fill="none" stroke="none"/><text fill="#000000" stroke="none" font-family="Arial" font-size="13px" font-style="normal" font-weight="normal" text-decoration="none" x="357" y="862">+method: string</text></g></g><g transform="translate(-78,-86) scale(1,1)"><g><path fill="none" stroke="none"/><text fill="#000000" stroke="none" font-family="Arial" font-size="13px" font-style="normal" font-weight="normal" text-decoration="none" x="357" y="876.5">+status: enum</text></g></g><g transform="translate(-78,-86) scale(1,1)"><rect fill="#C0C0C0" stroke="none" x="567" y="351" width="143" height="102" opacity="0.2"/></g><g transform="translate(-78,-86) scale(1,1)"><rect fill="#ffffff" stroke="none" x="560" y="344" width="143" height="102"/></g><g transform="translate(-78,-86) scale(1,1)"><path fill="none" stroke="#000000" d="M 560 344 L 703 344 L 703 446 L 560 446 L 560 344 Z Z" stroke-miterlimit="10"/></g><g transform="translate(-78,-86) scale(1,1)"><path fill="none" stroke="#000000" d="M 560 369 L 703 369" stroke-miterlimit="10"/></g><g transform="translate(-78,-86) scale(1,1)"><path fill="none" stroke="#000000" d="M 560 437 L 703 437" stroke-miterlimit="10"/></g><g transform="translate(-78,-86) scale(1,1)"><g><path fill="none" stroke="none"/><text fill="#000000" stroke="none" font-family="Arial" font-size="13px" font-style="normal" font-weight="bold" text-decoration="none" x="600.4345703125" y="362">OrderItem</text></g></g><g transform="translate(-78,-86) scale(1,1)"><g><path fill="none" stroke="none"/><text fill="#000000" stroke="none" font-family="Arial" font-size="13px" font-style="normal" font-weight="normal" text-decoration="none" x="565" y="385">+id: string</text></g></g><g transform="translate(-78,-86) scale(1,1)"><g><path fill="none" stroke="none"/><text fill="#000000" stroke="none" font-family="Arial" font-size="13px" font-style="normal" font-weight="normal" text-decoration="none" x="565" y="400">+orderId: string</text></g></g><g transform="translate(-78,-86) scale(1,1)"><g><path fill="none" stroke="none"/><text fill="#000000" stroke="none" font-family="Arial" font-size="13px" font-style="normal" font-weight="normal" text-decoration="none" x="565" y="415">+productId: string</text></g></g><g transform="translate(-78,-86) scale(1,1)"><g><path fill="none" stroke="none"/><text fill="#000000" stroke="none" font-family="Arial" font-size="13px" font-style="normal" font-weight="normal" text-decoration="none" x="565" y="430">+quantity: number</text></g></g><g transform="translate(-78,-86) scale(1,1)"><path fill="none" stroke="#000000" d="M 578 447 L 473 551" stroke-miterlimit="10"/></g><g transform="translate(-78,-86) scale(1,1)"><g><path fill="none" stroke="none"/><text fill="#000000" stroke="none" font-family="Arial" font-size="13px" font-style="normal" font-weight="normal" text-decoration="none" x="578.5" y="466">0..*</text></g></g><g transform="translate(-78,-86) scale(1,1)"><g><path fill="none" stroke="none"/><text fill="#000000" stroke="none" font-family="Arial" font-size="13px" font-style="normal" font-weight="normal" text-decoration="none" x="495.5" y="547">1</text></g></g><g transform="translate(-78,-86) scale(1,1)"><path fill="none" stroke="#000000" d="M 684 343 L 784 244" stroke-miterlimit="10"/></g><g transform="translate(-78,-86) scale(1,1)"><g><path fill="none" stroke="none"/><text fill="#000000" stroke="none" font-family="Arial" font-size="13px" font-style="normal" font-weight="normal" text-decoration="none" x="706.5" y="340">0..*</text></g></g><g transform="translate(-78,-86) scale(1,1)"><g><path fill="none" stroke="none"/><text fill="#000000" stroke="none" font-family="Arial" font-size="13px" font-style="normal" font-weight="normal" text-decoration="none" x="788.5" y="265">1</text></g></g><g transform="translate(-78,-86) scale(1,1)"><path fill="none" stroke="#000000" d="M 421 655 L 422 775" stroke-miterlimit="10"/></g><g transform="translate(-78,-86) scale(1,1)"><g><path fill="none" stroke="none"/><text fill="#000000" stroke="none" font-family="Arial" font-size="13px" font-style="normal" font-weight="normal" text-decoration="none" x="394.5" y="674">0..*</text></g></g><g transform="translate(-78,-86) scale(1,1)"><g><path fill="none" stroke="none"/><text fill="#000000" stroke="none" font-family="Arial" font-size="13px" font-style="normal" font-weight="normal" text-decoration="none" x="401.5" y="762">1</text></g></g><g transform="translate(-78,-86) scale(1,1)"><rect fill="#C0C0C0" stroke="none" x="1095" y="231" width="151.720703125" height="117" opacity="0.2"/></g><g transform="translate(-78,-86) scale(1,1)"><rect fill="#ffffff" stroke="none" x="1088" y="224" width="151.720703125" height="117"/></g><g transform="translate(-78,-86) scale(1,1)"><path fill="none" stroke="#000000" d="M 1088 224 L 1239.720703125 224 L 1239.720703125 341 L 1088 341 L 1088 224 Z Z" stroke-miterlimit="10"/></g><g transform="translate(-78,-86) scale(1,1)"><path fill="none" stroke="#000000" d="M 1088 249 L 1239.720703125 249" stroke-miterlimit="10"/></g><g transform="translate(-78,-86) scale(1,1)"><path fill="none" stroke="#000000" d="M 1088 332 L 1239.720703125 332" stroke-miterlimit="10"/></g><g transform="translate(-78,-86) scale(1,1)"><g><path fill="none" stroke="none"/><text fill="#000000" stroke="none" font-family="Arial" font-size="13px" font-style="normal" font-weight="bold" text-decoration="none" x="1134.60400390625" y="242">Inventory</text></g></g><g transform="translate(-78,-86) scale(1,1)"><g><path fill="none" stroke="none"/><text fill="#000000" stroke="none" font-family="Arial" font-size="13px" font-style="normal" font-weight="normal" text-decoration="none" x="1093" y="265">+id: string</text></g></g><g transform="translate(-78,-86) scale(1,1)"><g><path fill="none" stroke="none"/><text fill="#000000" stroke="none" font-family="Arial" font-size="13px" font-style="normal" font-weight="normal" text-decoration="none" x="1093" y="280">+totalStock: number</text></g></g><g transform="translate(-78,-86) scale(1,1)"><g><path fill="none" stroke="none"/><text fill="#000000" stroke="none" font-family="Arial" font-size="13px" font-style="normal" font-weight="normal" text-decoration="none" x="1093" y="295">+availableStock: number</text></g></g><g transform="translate(-78,-86) scale(1,1)"><g><path fill="none" stroke="none"/><text fill="#000000" stroke="none" font-family="Arial" font-size="13px" font-style="normal" font-weight="normal" text-decoration="none" x="1093" y="310">+reservedStock: number</text></g></g><g transform="translate(-78,-86) scale(1,1)"><g><path fill="none" stroke="none"/><text fill="#000000" stroke="none" font-family="Arial" font-size="13px" font-style="normal" font-weight="normal" text-decoration="none" x="1093" y="325">+productId: Product</text></g></g><g transform="translate(-78,-86) scale(1,1)"><path fill="none" stroke="#000000" d="M 1087 254 L 945 201" stroke-miterlimit="10"/></g><g transform="translate(-78,-86) scale(1,1)"><g><path fill="none" stroke="none"/><text fill="#000000" stroke="none" font-family="Arial" font-size="13px" font-style="normal" font-weight="normal" text-decoration="none" x="1071.5" y="239">1</text></g></g><g transform="translate(-78,-86) scale(1,1)"><g><path fill="none" stroke="none"/><text fill="#000000" stroke="none" font-family="Arial" font-size="13px" font-style="normal" font-weight="normal" text-decoration="none" x="951.5" y="191">1</text></g></g></g></svg>