<svg version="1.1" xmlns="http://www.w3.org/2000/svg" xmlns:xlink="http://www.w3.org/1999/xlink" width="1347.720703125" height="817"><defs/><g><g transform="translate(-246,-126) scale(1,1)"><rect fill="#C0C0C0" stroke="none" x="599" y="143" width="167" height="147" opacity="0.2"/></g><g transform="translate(-246,-126) scale(1,1)"><rect fill="#ffffff" stroke="none" x="592" y="136" width="167" height="147"/></g><g transform="translate(-246,-126) scale(1,1)"><path fill="none" stroke="#000000" d="M 592 136 L 759 136 L 759 283 L 592 283 L 592 136 Z Z" stroke-miterlimit="10"/></g><g transform="translate(-246,-126) scale(1,1)"><path fill="none" stroke="#000000" d="M 592 161 L 759 161" stroke-miterlimit="10"/></g><g transform="translate(-246,-126) scale(1,1)"><path fill="none" stroke="#000000" d="M 592 274 L 759 274" stroke-miterlimit="10"/></g><g transform="translate(-246,-126) scale(1,1)"><g><path fill="none" stroke="none"/><text fill="#000000" stroke="none" font-family="Arial" font-size="13px" font-style="normal" font-weight="bold" text-decoration="none" x="661.04638671875" y="154">User</text></g></g><g transform="translate(-246,-126) scale(1,1)"><g><path fill="none" stroke="none"/><text fill="#000000" stroke="none" font-family="Arial" font-size="13px" font-style="normal" font-weight="normal" text-decoration="none" x="597" y="177">+id: string</text></g></g><g transform="translate(-246,-126) scale(1,1)"><g><path fill="none" stroke="none"/><text fill="#000000" stroke="none" font-family="Arial" font-size="13px" font-style="normal" font-weight="normal" text-decoration="none" x="597" y="192">+firstName: string</text></g></g><g transform="translate(-246,-126) scale(1,1)"><g><path fill="none" stroke="none"/><text fill="#000000" stroke="none" font-family="Arial" font-size="13px" font-style="normal" font-weight="normal" text-decoration="none" x="597" y="207">+lastName: string</text></g></g><g transform="translate(-246,-126) scale(1,1)"><g><path fill="none" stroke="none"/><text fill="#000000" stroke="none" font-family="Arial" font-size="13px" font-style="normal" font-weight="normal" text-decoration="none" x="597" y="222">+email: string</text></g></g><g transform="translate(-246,-126) scale(1,1)"><g><path fill="none" stroke="none"/><text fill="#000000" stroke="none" font-family="Arial" font-size="13px" font-style="normal" font-weight="normal" text-decoration="none" x="597" y="237">+password: string</text></g></g><g transform="translate(-246,-126) scale(1,1)"><g><path fill="none" stroke="none"/><text fill="#000000" stroke="none" font-family="Arial" font-size="13px" font-style="normal" font-weight="normal" text-decoration="none" x="597" y="252">+roleId: Role</text></g></g><g transform="translate(-246,-126) scale(1,1)"><g><path fill="none" stroke="none"/><text fill="#000000" stroke="none" font-family="Arial" font-size="13px" font-style="normal" font-weight="normal" text-decoration="none" x="597" y="267">+phone: string</text></g></g><g transform="translate(-246,-126) scale(1,1)"><rect fill="#C0C0C0" stroke="none" x="431" y="463" width="168" height="87" opacity="0.2"/></g><g transform="translate(-246,-126) scale(1,1)"><rect fill="#ffffff" stroke="none" x="424" y="456" width="168" height="87"/></g><g transform="translate(-246,-126) scale(1,1)"><path fill="none" stroke="#000000" d="M 424 456 L 592 456 L 592 543 L 424 543 L 424 456 Z Z" stroke-miterlimit="10"/></g><g transform="translate(-246,-126) scale(1,1)"><path fill="none" stroke="#000000" d="M 424 481 L 592 481" stroke-miterlimit="10"/></g><g transform="translate(-246,-126) scale(1,1)"><path fill="none" stroke="#000000" d="M 424 534 L 592 534" stroke-miterlimit="10"/></g><g transform="translate(-246,-126) scale(1,1)"><g><path fill="none" stroke="none"/><text fill="#000000" stroke="none" font-family="Arial" font-size="13px" font-style="normal" font-weight="bold" text-decoration="none" x="493.91455078125" y="474">Role</text></g></g><g transform="translate(-246,-126) scale(1,1)"><g><path fill="none" stroke="none"/><text fill="#000000" stroke="none" font-family="Arial" font-size="13px" font-style="normal" font-weight="normal" text-decoration="none" x="429" y="497">+id: string</text></g></g><g transform="translate(-246,-126) scale(1,1)"><g><path fill="none" stroke="none"/><text fill="#000000" stroke="none" font-family="Arial" font-size="13px" font-style="normal" font-weight="normal" text-decoration="none" x="429" y="512">+name: string</text></g></g><g transform="translate(-246,-126) scale(1,1)"><g><path fill="none" stroke="none"/><text fill="#000000" stroke="none" font-family="Arial" font-size="13px" font-style="normal" font-weight="normal" text-decoration="none" x="429" y="527">+description</text></g></g><g transform="translate(-246,-126) scale(1,1)"><path fill="none" stroke="#000000" d="M 533 455 L 632 284" stroke-miterlimit="10"/></g><g transform="translate(-246,-126) scale(1,1)"><g><path fill="none" stroke="none"/><text fill="#000000" stroke="none" font-family="Arial" font-size="13px" font-style="normal" font-weight="normal" text-decoration="none" x="551.5" y="448">1</text></g></g><g transform="translate(-246,-126) scale(1,1)"><g><path fill="none" stroke="none"/><text fill="#000000" stroke="none" font-family="Arial" font-size="13px" font-style="normal" font-weight="normal" text-decoration="none" x="633.5" y="306">1..*</text></g></g><g transform="translate(-246,-126) scale(1,1)"><rect fill="#C0C0C0" stroke="none" x="1127" y="143" width="168" height="147" opacity="0.2"/></g><g transform="translate(-246,-126) scale(1,1)"><rect fill="#ffffff" stroke="none" x="1120" y="136" width="168" height="147"/></g><g transform="translate(-246,-126) scale(1,1)"><path fill="none" stroke="#000000" d="M 1120 136 L 1288 136 L 1288 283 L 1120 283 L 1120 136 Z Z" stroke-miterlimit="10"/></g><g transform="translate(-246,-126) scale(1,1)"><path fill="none" stroke="#000000" d="M 1120 161 L 1288 161" stroke-miterlimit="10"/></g><g transform="translate(-246,-126) scale(1,1)"><path fill="none" stroke="#000000" d="M 1120 274 L 1288 274" stroke-miterlimit="10"/></g><g transform="translate(-246,-126) scale(1,1)"><g><path fill="none" stroke="none"/><text fill="#000000" stroke="none" font-family="Arial" font-size="13px" font-style="normal" font-weight="bold" text-decoration="none" x="1179.444091796875" y="154">Product</text></g></g><g transform="translate(-246,-126) scale(1,1)"><g><path fill="none" stroke="none"/><text fill="#000000" stroke="none" font-family="Arial" font-size="13px" font-style="normal" font-weight="normal" text-decoration="none" x="1125" y="177">+id: string</text></g></g><g transform="translate(-246,-126) scale(1,1)"><g><path fill="none" stroke="none"/><text fill="#000000" stroke="none" font-family="Arial" font-size="13px" font-style="normal" font-weight="normal" text-decoration="none" x="1125" y="192">+name: string</text></g></g><g transform="translate(-246,-126) scale(1,1)"><g><path fill="none" stroke="none"/><text fill="#000000" stroke="none" font-family="Arial" font-size="13px" font-style="normal" font-weight="normal" text-decoration="none" x="1125" y="207">+description: string</text></g></g><g transform="translate(-246,-126) scale(1,1)"><g><path fill="none" stroke="none"/><text fill="#000000" stroke="none" font-family="Arial" font-size="13px" font-style="normal" font-weight="normal" text-decoration="none" x="1125" y="222">+price: number</text></g></g><g transform="translate(-246,-126) scale(1,1)"><g><path fill="none" stroke="none"/><text fill="#000000" stroke="none" font-family="Arial" font-size="13px" font-style="normal" font-weight="normal" text-decoration="none" x="1125" y="237">+isActive: boolean</text></g></g><g transform="translate(-246,-126) scale(1,1)"><g><path fill="none" stroke="none"/><text fill="#000000" stroke="none" font-family="Arial" font-size="13px" font-style="normal" font-weight="normal" text-decoration="none" x="1125" y="252">+adminId: User</text></g></g><g transform="translate(-246,-126) scale(1,1)"><g><path fill="none" stroke="none"/><text fill="#000000" stroke="none" font-family="Arial" font-size="13px" font-style="normal" font-weight="normal" text-decoration="none" x="1125" y="267">+categoryId: Category</text></g></g><g transform="translate(-246,-126) scale(1,1)"><rect fill="#C0C0C0" stroke="none" x="1135" y="527" width="159" height="87" opacity="0.2"/></g><g transform="translate(-246,-126) scale(1,1)"><rect fill="#ffffff" stroke="none" x="1128" y="520" width="159" height="87"/></g><g transform="translate(-246,-126) scale(1,1)"><path fill="none" stroke="#000000" d="M 1128 520 L 1287 520 L 1287 607 L 1128 607 L 1128 520 Z Z" stroke-miterlimit="10"/></g><g transform="translate(-246,-126) scale(1,1)"><path fill="none" stroke="#000000" d="M 1128 545 L 1287 545" stroke-miterlimit="10"/></g><g transform="translate(-246,-126) scale(1,1)"><path fill="none" stroke="#000000" d="M 1128 598 L 1287 598" stroke-miterlimit="10"/></g><g transform="translate(-246,-126) scale(1,1)"><g><path fill="none" stroke="none"/><text fill="#000000" stroke="none" font-family="Arial" font-size="13px" font-style="normal" font-weight="bold" text-decoration="none" x="1180.405029296875" y="537.5">category</text></g></g><g transform="translate(-246,-126) scale(1,1)"><g><path fill="none" stroke="none"/><text fill="#000000" stroke="none" font-family="Arial" font-size="13px" font-style="normal" font-weight="normal" text-decoration="none" x="1133" y="561">+id: string</text></g></g><g transform="translate(-246,-126) scale(1,1)"><g><path fill="none" stroke="none"/><text fill="#000000" stroke="none" font-family="Arial" font-size="13px" font-style="normal" font-weight="normal" text-decoration="none" x="1133" y="576">+name: string</text></g></g><g transform="translate(-246,-126) scale(1,1)"><g><path fill="none" stroke="none"/><text fill="#000000" stroke="none" font-family="Arial" font-size="13px" font-style="normal" font-weight="normal" text-decoration="none" x="1133" y="591">+description: string</text></g></g><g transform="translate(-246,-126) scale(1,1)"><path fill="none" stroke="#000000" d="M 1207 519 L 1205 284" stroke-miterlimit="10"/></g><g transform="translate(-246,-126) scale(1,1)"><g><path fill="none" stroke="none"/><text fill="#000000" stroke="none" font-family="Arial" font-size="13px" font-style="normal" font-weight="normal" text-decoration="none" x="1215.5" y="507">1</text></g></g><g transform="translate(-246,-126) scale(1,1)"><g><path fill="none" stroke="none"/><text fill="#000000" stroke="none" font-family="Arial" font-size="13px" font-style="normal" font-weight="normal" text-decoration="none" x="1207.5" y="305">1..*</text></g></g><g transform="translate(-246,-126) scale(1,1)"><path fill="none" stroke="#000000" d="M 760 209 L 1119 209" stroke-miterlimit="10"/></g><g transform="translate(-246,-126) scale(1,1)"><g><path fill="none" stroke="none"/><text fill="#000000" stroke="none" font-family="Arial" font-size="13px" font-style="normal" font-weight="normal" text-decoration="none" x="765.641357421875" y="234">1</text></g></g><g transform="translate(-246,-126) scale(1,1)"><g><path fill="none" stroke="none"/><text fill="#000000" stroke="none" font-family="Arial" font-size="13px" font-style="normal" font-weight="normal" text-decoration="none" x="1087.5" y="234">0..*</text></g></g><g transform="translate(-246,-126) scale(1,1)"><rect fill="#C0C0C0" stroke="none" x="695" y="599" width="152" height="102" opacity="0.2"/></g><g transform="translate(-246,-126) scale(1,1)"><rect fill="#ffffff" stroke="none" x="688" y="592" width="152" height="102"/></g><g transform="translate(-246,-126) scale(1,1)"><path fill="none" stroke="#000000" d="M 688 592 L 840 592 L 840 694 L 688 694 L 688 592 Z Z" stroke-miterlimit="10"/></g><g transform="translate(-246,-126) scale(1,1)"><path fill="none" stroke="#000000" d="M 688 617 L 840 617" stroke-miterlimit="10"/></g><g transform="translate(-246,-126) scale(1,1)"><path fill="none" stroke="#000000" d="M 688 685 L 840 685" stroke-miterlimit="10"/></g><g transform="translate(-246,-126) scale(1,1)"><g><path fill="none" stroke="none"/><text fill="#000000" stroke="none" font-family="Arial" font-size="13px" font-style="normal" font-weight="bold" text-decoration="none" x="746.299560546875" y="610">Order</text></g></g><g transform="translate(-246,-126) scale(1,1)"><g><path fill="none" stroke="none"/><text fill="#000000" stroke="none" font-family="Arial" font-size="13px" font-style="normal" font-weight="normal" text-decoration="none" x="693" y="633">+id: string</text></g></g><g transform="translate(-246,-126) scale(1,1)"><g><path fill="none" stroke="none"/><text fill="#000000" stroke="none" font-family="Arial" font-size="13px" font-style="normal" font-weight="normal" text-decoration="none" x="693" y="647.5">+status: enum</text></g></g><g transform="translate(-246,-126) scale(1,1)"><g><path fill="none" stroke="none"/><text fill="#000000" stroke="none" font-family="Arial" font-size="13px" font-style="normal" font-weight="normal" text-decoration="none" x="693" y="663">+totalPrice: number</text></g></g><g transform="translate(-246,-126) scale(1,1)"><g><path fill="none" stroke="none"/><text fill="#000000" stroke="none" font-family="Arial" font-size="13px" font-style="normal" font-weight="normal" text-decoration="none" x="693" y="678">+userId: User</text></g></g><g transform="translate(-246,-126) scale(1,1)"><path fill="none" stroke="#000000" d="M 690 284 L 753 591" stroke-miterlimit="10"/></g><g transform="translate(-246,-126) scale(1,1)"><g><path fill="none" stroke="none"/><text fill="#000000" stroke="none" font-family="Arial" font-size="13px" font-style="normal" font-weight="normal" text-decoration="none" x="703.5" y="306">1</text></g></g><g transform="translate(-246,-126) scale(1,1)"><g><path fill="none" stroke="none"/><text fill="#000000" stroke="none" font-family="Arial" font-size="13px" font-style="normal" font-weight="normal" text-decoration="none" x="763.5" y="581">0..*</text></g></g><g transform="translate(-246,-126) scale(1,1)"><rect fill="#C0C0C0" stroke="none" x="703" y="823" width="143" height="117" opacity="0.2"/></g><g transform="translate(-246,-126) scale(1,1)"><rect fill="#ffffff" stroke="none" x="696" y="816" width="143" height="117"/></g><g transform="translate(-246,-126) scale(1,1)"><path fill="none" stroke="#000000" d="M 696 816 L 839 816 L 839 933 L 696 933 L 696 816 Z Z" stroke-miterlimit="10"/></g><g transform="translate(-246,-126) scale(1,1)"><path fill="none" stroke="#000000" d="M 696 841 L 839 841" stroke-miterlimit="10"/></g><g transform="translate(-246,-126) scale(1,1)"><path fill="none" stroke="#000000" d="M 696 924 L 839 924" stroke-miterlimit="10"/></g><g transform="translate(-246,-126) scale(1,1)"><g><path fill="none" stroke="none"/><text fill="#000000" stroke="none" font-family="Arial" font-size="13px" font-style="normal" font-weight="bold" text-decoration="none" x="740.405029296875" y="834">Payment</text></g></g><g transform="translate(-246,-126) scale(1,1)"><g><path fill="none" stroke="none"/><text fill="#000000" stroke="none" font-family="Arial" font-size="13px" font-style="normal" font-weight="normal" text-decoration="none" x="701" y="857">+id: string</text></g></g><g transform="translate(-246,-126) scale(1,1)"><g><path fill="none" stroke="none"/><text fill="#000000" stroke="none" font-family="Arial" font-size="13px" font-style="normal" font-weight="normal" text-decoration="none" x="701" y="872">+orderId: Order</text></g></g><g transform="translate(-246,-126) scale(1,1)"><g><path fill="none" stroke="none"/><text fill="#000000" stroke="none" font-family="Arial" font-size="13px" font-style="normal" font-weight="normal" text-decoration="none" x="701" y="887">+amount: number</text></g></g><g transform="translate(-246,-126) scale(1,1)"><g><path fill="none" stroke="none"/><text fill="#000000" stroke="none" font-family="Arial" font-size="13px" font-style="normal" font-weight="normal" text-decoration="none" x="701" y="902">+method: string</text></g></g><g transform="translate(-246,-126) scale(1,1)"><g><path fill="none" stroke="none"/><text fill="#000000" stroke="none" font-family="Arial" font-size="13px" font-style="normal" font-weight="normal" text-decoration="none" x="701" y="916.5">+status: enum</text></g></g><g transform="translate(-246,-126) scale(1,1)"><rect fill="#C0C0C0" stroke="none" x="911" y="391" width="143" height="102" opacity="0.2"/></g><g transform="translate(-246,-126) scale(1,1)"><rect fill="#ffffff" stroke="none" x="904" y="384" width="143" height="102"/></g><g transform="translate(-246,-126) scale(1,1)"><path fill="none" stroke="#000000" d="M 904 384 L 1047 384 L 1047 486 L 904 486 L 904 384 Z Z" stroke-miterlimit="10"/></g><g transform="translate(-246,-126) scale(1,1)"><path fill="none" stroke="#000000" d="M 904 409 L 1047 409" stroke-miterlimit="10"/></g><g transform="translate(-246,-126) scale(1,1)"><path fill="none" stroke="#000000" d="M 904 477 L 1047 477" stroke-miterlimit="10"/></g><g transform="translate(-246,-126) scale(1,1)"><g><path fill="none" stroke="none"/><text fill="#000000" stroke="none" font-family="Arial" font-size="13px" font-style="normal" font-weight="bold" text-decoration="none" x="944.4345703125" y="402">OrderItem</text></g></g><g transform="translate(-246,-126) scale(1,1)"><g><path fill="none" stroke="none"/><text fill="#000000" stroke="none" font-family="Arial" font-size="13px" font-style="normal" font-weight="normal" text-decoration="none" x="909" y="425">+id: string</text></g></g><g transform="translate(-246,-126) scale(1,1)"><g><path fill="none" stroke="none"/><text fill="#000000" stroke="none" font-family="Arial" font-size="13px" font-style="normal" font-weight="normal" text-decoration="none" x="909" y="440">+orderId: string</text></g></g><g transform="translate(-246,-126) scale(1,1)"><g><path fill="none" stroke="none"/><text fill="#000000" stroke="none" font-family="Arial" font-size="13px" font-style="normal" font-weight="normal" text-decoration="none" x="909" y="455">+productId: string</text></g></g><g transform="translate(-246,-126) scale(1,1)"><g><path fill="none" stroke="none"/><text fill="#000000" stroke="none" font-family="Arial" font-size="13px" font-style="normal" font-weight="normal" text-decoration="none" x="909" y="470">+quantity: number</text></g></g><g transform="translate(-246,-126) scale(1,1)"><path fill="none" stroke="#000000" d="M 922 487 L 817 591" stroke-miterlimit="10"/></g><g transform="translate(-246,-126) scale(1,1)"><g><path fill="none" stroke="none"/><text fill="#000000" stroke="none" font-family="Arial" font-size="13px" font-style="normal" font-weight="normal" text-decoration="none" x="922.5" y="506">0..*</text></g></g><g transform="translate(-246,-126) scale(1,1)"><g><path fill="none" stroke="none"/><text fill="#000000" stroke="none" font-family="Arial" font-size="13px" font-style="normal" font-weight="normal" text-decoration="none" x="839.5" y="587">1</text></g></g><g transform="translate(-246,-126) scale(1,1)"><path fill="none" stroke="#000000" d="M 1028 383 L 1128 284" stroke-miterlimit="10"/></g><g transform="translate(-246,-126) scale(1,1)"><g><path fill="none" stroke="none"/><text fill="#000000" stroke="none" font-family="Arial" font-size="13px" font-style="normal" font-weight="normal" text-decoration="none" x="1050.5" y="380">0..*</text></g></g><g transform="translate(-246,-126) scale(1,1)"><g><path fill="none" stroke="none"/><text fill="#000000" stroke="none" font-family="Arial" font-size="13px" font-style="normal" font-weight="normal" text-decoration="none" x="1132.5" y="305">1</text></g></g><g transform="translate(-246,-126) scale(1,1)"><path fill="none" stroke="#000000" d="M 765 695 L 766 815" stroke-miterlimit="10"/></g><g transform="translate(-246,-126) scale(1,1)"><g><path fill="none" stroke="none"/><text fill="#000000" stroke="none" font-family="Arial" font-size="13px" font-style="normal" font-weight="normal" text-decoration="none" x="738.5" y="714">0..*</text></g></g><g transform="translate(-246,-126) scale(1,1)"><g><path fill="none" stroke="none"/><text fill="#000000" stroke="none" font-family="Arial" font-size="13px" font-style="normal" font-weight="normal" text-decoration="none" x="745.5" y="802">1</text></g></g><g transform="translate(-246,-126) scale(1,1)"><rect fill="#C0C0C0" stroke="none" x="1439" y="271" width="151.720703125" height="117" opacity="0.2"/></g><g transform="translate(-246,-126) scale(1,1)"><rect fill="#ffffff" stroke="none" x="1432" y="264" width="151.720703125" height="117"/></g><g transform="translate(-246,-126) scale(1,1)"><path fill="none" stroke="#000000" d="M 1432 264 L 1583.720703125 264 L 1583.720703125 381 L 1432 381 L 1432 264 Z Z" stroke-miterlimit="10"/></g><g transform="translate(-246,-126) scale(1,1)"><path fill="none" stroke="#000000" d="M 1432 289 L 1583.720703125 289" stroke-miterlimit="10"/></g><g transform="translate(-246,-126) scale(1,1)"><path fill="none" stroke="#000000" d="M 1432 372 L 1583.720703125 372" stroke-miterlimit="10"/></g><g transform="translate(-246,-126) scale(1,1)"><g><path fill="none" stroke="none"/><text fill="#000000" stroke="none" font-family="Arial" font-size="13px" font-style="normal" font-weight="bold" text-decoration="none" x="1478.60400390625" y="282">Inventory</text></g></g><g transform="translate(-246,-126) scale(1,1)"><g><path fill="none" stroke="none"/><text fill="#000000" stroke="none" font-family="Arial" font-size="13px" font-style="normal" font-weight="normal" text-decoration="none" x="1437" y="305">+id: string</text></g></g><g transform="translate(-246,-126) scale(1,1)"><g><path fill="none" stroke="none"/><text fill="#000000" stroke="none" font-family="Arial" font-size="13px" font-style="normal" font-weight="normal" text-decoration="none" x="1437" y="320">+totalStock: number</text></g></g><g transform="translate(-246,-126) scale(1,1)"><g><path fill="none" stroke="none"/><text fill="#000000" stroke="none" font-family="Arial" font-size="13px" font-style="normal" font-weight="normal" text-decoration="none" x="1437" y="335">+availableStock: number</text></g></g><g transform="translate(-246,-126) scale(1,1)"><g><path fill="none" stroke="none"/><text fill="#000000" stroke="none" font-family="Arial" font-size="13px" font-style="normal" font-weight="normal" text-decoration="none" x="1437" y="350">+reservedStock: number</text></g></g><g transform="translate(-246,-126) scale(1,1)"><g><path fill="none" stroke="none"/><text fill="#000000" stroke="none" font-family="Arial" font-size="13px" font-style="normal" font-weight="normal" text-decoration="none" x="1437" y="365">+productId: Product</text></g></g><g transform="translate(-246,-126) scale(1,1)"><path fill="none" stroke="#000000" d="M 1431 294 L 1289 241" stroke-miterlimit="10"/></g><g transform="translate(-246,-126) scale(1,1)"><g><path fill="none" stroke="none"/><text fill="#000000" stroke="none" font-family="Arial" font-size="13px" font-style="normal" font-weight="normal" text-decoration="none" x="1415.5" y="279">1</text></g></g><g transform="translate(-246,-126) scale(1,1)"><g><path fill="none" stroke="none"/><text fill="#000000" stroke="none" font-family="Arial" font-size="13px" font-style="normal" font-weight="normal" text-decoration="none" x="1295.5" y="231">1</text></g></g><g transform="translate(-246,-126) scale(1,1)"><rect fill="#C0C0C0" stroke="none" x="263" y="199" width="151" height="117" opacity="0.2"/></g><g transform="translate(-246,-126) scale(1,1)"><rect fill="#ffffff" stroke="none" x="256" y="192" width="151" height="117"/></g><g transform="translate(-246,-126) scale(1,1)"><path fill="none" stroke="#000000" d="M 256 192 L 407 192 L 407 309 L 256 309 L 256 192 Z Z" stroke-miterlimit="10"/></g><g transform="translate(-246,-126) scale(1,1)"><path fill="none" stroke="#000000" d="M 256 217 L 407 217" stroke-miterlimit="10"/></g><g transform="translate(-246,-126) scale(1,1)"><path fill="none" stroke="#000000" d="M 256 300 L 407 300" stroke-miterlimit="10"/></g><g transform="translate(-246,-126) scale(1,1)"><g><path fill="none" stroke="none"/><text fill="#000000" stroke="none" font-family="Arial" font-size="13px" font-style="normal" font-weight="bold" text-decoration="none" x="295.753173828125" y="210">Notification</text></g></g><g transform="translate(-246,-126) scale(1,1)"><g><path fill="none" stroke="none"/><text fill="#000000" stroke="none" font-family="Arial" font-size="13px" font-style="normal" font-weight="normal" text-decoration="none" x="261" y="233">+id: string</text></g></g><g transform="translate(-246,-126) scale(1,1)"><g><path fill="none" stroke="none"/><text fill="#000000" stroke="none" font-family="Arial" font-size="13px" font-style="normal" font-weight="normal" text-decoration="none" x="261" y="248">+userId: User</text></g></g><g transform="translate(-246,-126) scale(1,1)"><g><path fill="none" stroke="none"/><text fill="#000000" stroke="none" font-family="Arial" font-size="13px" font-style="normal" font-weight="normal" text-decoration="none" x="261" y="263">+title: string</text></g></g><g transform="translate(-246,-126) scale(1,1)"><g><path fill="none" stroke="none"/><text fill="#000000" stroke="none" font-family="Arial" font-size="13px" font-style="normal" font-weight="normal" text-decoration="none" x="261" y="278">+message: string</text></g></g><g transform="translate(-246,-126) scale(1,1)"><g><path fill="none" stroke="none"/><text fill="#000000" stroke="none" font-family="Arial" font-size="13px" font-style="normal" font-weight="normal" text-decoration="none" x="261" y="293">+isRead: boolean</text></g></g><g transform="translate(-246,-126) scale(1,1)"><path fill="none" stroke="#000000" d="M 408 241 L 591 219" stroke-miterlimit="10"/></g><g transform="translate(-246,-126) scale(1,1)"><g><path fill="none" stroke="none"/><text fill="#000000" stroke="none" font-family="Arial" font-size="13px" font-style="normal" font-weight="normal" text-decoration="none" x="414.5" y="258">0..*</text></g></g><g transform="translate(-246,-126) scale(1,1)"><g><path fill="none" stroke="none"/><text fill="#000000" stroke="none" font-family="Arial" font-size="13px" font-style="normal" font-weight="normal" text-decoration="none" x="575.5" y="238">1</text></g></g></g></svg>